{
  "accessors": [
    {
      "bufferView": 2,
      "componentType": 5126,
      "count": 20449,
      "max": [
        0.9774124026298523,
        0.9888665080070496,
        0.9774121046066284
      ],
      "min": [
        -0.9774124026298523,
        -0.9945167303085327,
        -0.9774124622344971
      ],
      "type": "VEC3"
    },
    {
      "bufferView": 2,
      "byteOffset": 245388,
      "componentType": 5126,
      "count": 20449,
      "max": [
        1.0,
        0.9984391927719116,
        1.0
      ],
      "min": [
        -1.0,
        -1.0,
        -1.0
      ],
      "type": "VEC3"
    },
    {
      "bufferView": 1,
      "componentType": 5126,
      "count": 20449,
      "max": [
        1.0000001192092896,
        1.0000001192092896
      ],
      "min": [
        0.0,
        0.5
      ],
      "type": "VEC2"
    },
    {
      "bufferView": 0,
      "componentType": 5125,
      "count": 107136,
      "type": "SCALAR"
    },
    {
      "bufferView": 2,
      "byteOffset": 490776,
      "componentType": 5126,
      "count": 1458,
      "max": [
        0.6223310232162476,
        1.026790738105774,
        -0.1740831881761551
      ],
      "min": [
        -0.6224024295806885,
        0.5403726696968079,
        -0.5490189790725708
      ],
      "type": "VEC3"
    },
    {
      "bufferView": 2,
      "byteOffset": 508272,
      "componentType": 5126,
      "count": 1458,
      "max": [
        0.998979389667511,
        0.9954285621643066,
        0.9993273019790649
      ],
      "min": [
        -0.9973278045654297,
        -0.9988381862640381,
        -0.9976901412010193
      ],
      "type": "VEC3"
    },
    {
      "bufferView": 1,
      "byteOffset": 163592,
      "componentType": 5126,
      "count": 1458,
      "max": [
        0.8750001192092896,
        1.0000001192092896
      ],
      "min": [
        0.1250000149011612,
        0.0
      ],
      "type": "VEC2"
    },
    {
      "bufferView": 0,
      "byteOffset": 428544,
      "componentType": 5125,
      "count": 7680,
      "type": "SCALAR"
    },
    {
      "bufferView": 2,
      "byteOffset": 525768,
      "componentType": 5126,
      "count": 2480,
      "max": [
        0.7932676672935486,
        0.9064009785652161,
        0.2530188262462616
      ],
      "min": [
        -0.7932678461074829,
        0.3588620722293854,
        -0.061043474823236465
      ],
      "type": "VEC3"
    },
    {
      "bufferView": 2,
      "byteOffset": 555528,
      "componentType": 5126,
      "count": 2480,
      "max": [
        0.9018794894218445,
        0.9984546303749084,
        0.3009185492992401
      ],
      "min": [
        -0.9018794894218445,
        -0.9880713820457458,
        -0.9973094463348389
      ],
      "type": "VEC3"
    },
    {
      "bufferView": 1,
      "byteOffset": 175256,
      "componentType": 5126,
      "count": 2480,
      "max": [
        1.0000001192092896,
        1.0000001192092896
      ],
      "min": [
        0.5000000596046448,
        0.7500001192092896
      ],
      "type": "VEC2"
    },
    {
      "bufferView": 0,
      "byteOffset": 459264,
      "componentType": 5125,
      "count": 6912,
      "type": "SCALAR"
    },
    {
      "bufferView": 2,
      "byteOffset": 585288,
      "componentType": 5126,
      "count": 2381,
      "max": [
        0.5402089357376099,
        0.34792840480804443,
        0.659105122089386
      ],
      "min": [
        -0.5402098894119263,
        -0.14200101792812347,
        0.09443654119968414
      ],
      "type": "VEC3"
    },
    {
      "bufferView": 2,
      "byteOffset": 613860,
      "componentType": 5126,
      "count": 2381,
      "max": [
        0.9967467188835144,
        0.9997545480728149,
        0.9996393918991089
      ],
      "min": [
        -0.9967467188835144,
        -0.944189190864563,
        -0.8992972373962402
      ],
      "type": "VEC3"
    },
    {
      "bufferView": 1,
      "byteOffset": 195096,
      "componentType": 5126,
      "count": 2381,
      "max": [
        0.8319399952888489,
        0.9579353928565979
      ],
      "min": [
        0.1600256711244583,
        0.7524327039718628
      ],
      "type": "VEC2"
    },
    {
      "bufferView": 0,
      "byteOffset": 486912,
      "componentType": 5125,
      "count": 9216,
      "type": "SCALAR"
    },
    {
      "bufferView": 2,
      "byteOffset": 642432,
      "componentType": 5126,
      "count": 9828,
      "max": [
        0.821096658706665,
        0.9064009785652161,
        0.7496047019958496
      ],
      "min": [
        -0.8210968375205994,
        -0.1453646719455719,
        -0.08178713172674179
      ],
      "type": "VEC3"
    },
    {
      "bufferView": 2,
      "byteOffset": 760368,
      "componentType": 5126,
      "count": 9828,
      "max": [
        0.999610424041748,
        0.9993711709976196,
        0.9999990463256836
      ],
      "min": [
        -0.999610424041748,
        -0.9579471349716187,
        -0.9999673366546631
      ],
      "type": "VEC3"
    },
    {
      "bufferView": 1,
      "byteOffset": 214144,
      "componentType": 5126,
      "count": 9828,
      "max": [
        1.0000001192092896,
        1.0000001192092896
      ],
      "min": [
        0.0,
        0.7500000596046448
      ],
      "type": "VEC2"
    },
    {
      "bufferView": 0,
      "byteOffset": 523776,
      "componentType": 5125,
      "count": 33024,
      "type": "SCALAR"
    },
    {
      "bufferView": 2,
      "byteOffset": 878304,
      "componentType": 5126,
      "count": 31885,
      "max": [
        0.9156238436698914,
        0.9647320508956909,
        0.2949731945991516
      ],
      "min": [
        -0.9156238436698914,
        0.7359157800674438,
        -0.21492047607898712
      ],
      "type": "VEC3"
    },
    {
      "bufferView": 2,
      "byteOffset": 1260924,
      "componentType": 5126,
      "count": 31885,
      "max": [
        0.9998232126235962,
        0.9999932050704956,
        0.9999771118164063
      ],
      "min": [
        -0.9998232126235962,
        -0.9999995231628418,
        -0.9768030047416687
      ],
      "type": "VEC3"
    },
    {
      "bufferView": 1,
      "byteOffset": 292768,
      "componentType": 5126,
      "count": 31885,
      "max": [
        1.0000001192092896,
        1.0000001192092896
      ],
      "min": [
        0.0,
        0.0
      ],
      "type": "VEC2"
    },
    {
      "bufferView": 0,
      "byteOffset": 655872,
      "componentType": 5125,
      "count": 176640,
      "type": "SCALAR"
    }
  ],
  "asset": {
    "extras": {
      "author": "Kawsar (https://sketchfab.com/Khsuzan)",
      "license": "CC-BY-4.0 (http://creativecommons.org/licenses/by/4.0/)",
      "source": "https://sketchfab.com/3d-models/smile-tears-17399ba9bfad4e00988fd8524c12aca9",
      "title": "smile tears"
    },
    "generator": "Sketchfab-12.68.0",
    "version": "2.0"
  },
  "bufferViews": [
    {
      "buffer": 0,
      "byteLength": 1362432,
      "name": "floatBufferViews",
      "target": 34963
    },
    {
      "buffer": 0,
      "byteLength": 547848,
      "byteOffset": 1362432,
      "byteStride": 8,
      "name": "floatBufferViews",
      "target": 34962
    },
    {
      "buffer": 0,
      "byteLength": 1643544,
      "byteOffset": 1910280,
      "byteStride": 12,
      "name": "floatBufferViews",
      "target": 34962
    }
  ],
  "buffers": [
    {
      "byteLength": 3553824,
      "uri": "scene.bin"
    }
  ],
  "materials": [
    {
      "doubleSided": true,
      "name": "emoji_body",
      "pbrMetallicRoughness": {
        "baseColorFactor": [
          1.0,
          0.5908742690934663,
          0.009615739678686761,
          1.0
        ],
        "metallicFactor": 0.4394825164620689,
        "roughnessFactor": 0.3
      }
    },
    {
      "doubleSided": true,
      "name": "emoji_eyes",
      "pbrMetallicRoughness": {
        "baseColorFactor": [
          0.03858753884586705,
          0.03793704048609816,
          0.03793704048609816,
          1.0
        ],
        "metallicFactor": 0.0,
        "roughnessFactor": 0.3
      }
    },
    {
      "doubleSided": true,
      "name": "emoji_teeth",
      "pbrMetallicRoughness": {
        "baseColorFactor": [
          0.8,
          0.8,
          0.8,
          1.0
        ],
        "metallicFactor": 0.05,
        "roughnessFactor": 0.1
      }
    },
    {
      "doubleSided": true,
      "name": "emoji_tongue",
      "pbrMetallicRoughness": {
        "baseColorFactor": [
          1.0,
          0.0,
          0.0,
          1.0
        ],
        "metallicFactor": 0.0,
        "roughnessFactor": 0.4
      }
    },
    {
      "doubleSided": true,
      "name": "inner_mouth",
      "pbrMetallicRoughness": {
        "baseColorFactor": [
          0.296469,
          0.0,
          0.000640541,
          1.0
        ],
        "metallicFactor": 0.0,
        "roughnessFactor": 0.4
      }
    },
    {
      "doubleSided": true,
      "name": "tears",
      "pbrMetallicRoughness": {
        "baseColorFactor": [
          0.00335033,
          0.185528,
          1.0,
          1.0
        ],
        "metallicFactor": 0.0,
        "roughnessFactor": 0.1
      }
    }
  ],
  "meshes": [
    {
      "name": "Object_0",
      "primitives": [
        {
          "attributes": {
            "NORMAL": 1,
            "POSITION": 0,
            "TEXCOORD_0": 2
          },
          "indices": 3,
          "material": 0,
          "mode": 4
        }
      ]
    },
    {
      "name": "Object_1",
      "primitives": [
        {
          "attributes": {
            "NORMAL": 5,
            "POSITION": 4,
            "TEXCOORD_0": 6
          },
          "indices": 7,
          "material": 1,
          "mode": 4
        }
      ]
    },
    {
      "name": "Object_2",
      "primitives": [
        {
          "attributes": {
            "NORMAL": 9,
            "POSITION": 8,
            "TEXCOORD_0": 10
          },
          "indices": 11,
          "material": 2,
          "mode": 4
        }
      ]
    },
    {
      "name": "Object_3",
      "primitives": [
        {
          "attributes": {
            "NORMAL": 13,
            "POSITION": 12,
            "TEXCOORD_0": 14
          },
          "indices": 15,
          "material": 3,
          "mode": 4
        }
      ]
    },
    {
      "name": "Object_4",
      "primitives": [
        {
          "attributes": {
            "NORMAL": 17,
            "POSITION": 16,
            "TEXCOORD_0": 18
          },
          "indices": 19,
          "material": 4,
          "mode": 4
        }
      ]
    },
    {
      "name": "Object_5",
      "primitives": [
        {
          "attributes": {
            "NORMAL": 21,
            "POSITION": 20,
            "TEXCOORD_0": 22
          },
          "indices": 23,
          "material": 5,
          "mode": 4
        }
      ]
    }
  ],
  "nodes": [
    {
      "children": [
        1
      ],
      "matrix": [
        1.0,
        5.356124287284811e-32,
        -1.6081226229577292e-16,
        0.0,
        -1.6081226229577292e-16,
        3.828568672208042e-16,
        -1.0,
        0.0,
        8.006836424271825e-33,
        1.0,
        3.828568672208042e-16,
        0.0,
        -3.908527655986562e-18,
        6.317050217590134e-32,
        -2.8449465006019636e-16,
        1.0
      ],
      "name": "Sketchfab_model"
    },
    {
      "children": [
        2
      ],
      "name": "root"
    },
    {
      "children": [
        3
      ],
      "matrix": [
        1.0,
        0.0,
        0.0,
        0.0,
        0.0,
        2.220446049250313e-16,
        1.0,
        0.0,
        0.0,
        -1.0,
        2.220446049250313e-16,
        0.0,
        0.0,
        0.0,
        0.0,
        1.0
      ],
      "name": "GLTF_SceneRootNode"
    },
    {
      "children": [
        4,
        5,
        6,
        7,
        8,
        9
      ],
      "matrix": [
        1.506154179573059,
        0.0,
        0.0,
        0.0,
        0.0,
        0.0,
        1.506154179573059,
        0.0,
        0.0,
        -1.506154179573059,
        0.0,
        0.0,
        0.0,
        2.470043659210205,
        0.0,
        1.0
      ],
      "name": "hihi.002_0"
    },
    {
      "mesh": 0,
      "name": "Object_4"
    },
    {
      "mesh": 1,
      "name": "Object_5"
    },
    {
      "mesh": 2,
      "name": "Object_6"
    },
    {
      "mesh": 3,
      "name": "Object_7"
    },
    {
      "mesh": 4,
      "name": "Object_8"
    },
    {
      "mesh": 5,
      "name": "Object_9"
    }
  ],
  "scene": 0,
  "scenes": [
    {
      "name": "Sketchfab_Scene",
      "nodes": [
        0
      ]
    }
  ]
}
